<svg xmlns="http://www.w3.org/2000/svg" viewBox="0 0 1672.44 1629.06"><defs><style>.cls-1{fill:#3a7124;}.cls-1,.cls-2,.cls-3,.cls-4,.cls-5{fill-rule:evenodd;}.cls-2{fill:#72be44;}.cls-3,.cls-6{fill:#b00069;}.cls-4{fill:#eb008b;}.cls-5{fill:#f072ab;}</style></defs><title>Asset 2</title><g id="Layer_2" data-name="Layer 2"><g id="Layer_1-2" data-name="Layer 1"><path class="cls-1" d="M201,1002c-35.73-14.45-74.83-16.5-111.5-2.95s-65,40.51-82.82,74.72c35.74,14.44,74.84,16.5,111.5,3S183.25,1036.25,201,1002Z"/><path class="cls-1" d="M1168.67,1555.49c36-21.28,63.54-53.62,76-94.14s7.94-82.76-9.83-120.61c-36,21.28-63.53,53.62-76,94.15s-7.95,82.76,9.82,120.6Z"/><path class="cls-1" d="M1401.79,1171.65c-40.14-9.2-75.64-31.3-99.47-65.59s-32.22-75.27-26.86-116.09c40.14,9.19,75.63,31.31,99.48,65.59s32.2,75.27,26.85,116.09Z"/><path class="cls-1" d="M1425.69,1214.73c27.86,17.76,60.47,25.61,93.49,19.94s61.15-24,81.46-50c-27.83-17.77-60.45-25.62-93.47-20s-61.15,24-81.48,50Z"/><path class="cls-1" d="M207.63,1282a36.62,36.62,0,1,0,36.62,36.62A36.62,36.62,0,0,0,207.63,1282Z"/><path class="cls-1" d="M192.8,1215.45c20.76-16,46-24.54,72.49-22.41s50,14.6,68,33.75c-20.76,16-46,24.55-72.5,22.41s-50.06-14.6-68-33.75Z"/><path class="cls-1" d="M1112.78,1322.8a40.26,40.26,0,1,0,40.26,40.26,40.27,40.27,0,0,0-40.26-40.26Z"/><path class="cls-1" d="M723.63,1132.92a23.58,23.58,0,1,0,23.59,23.59,23.58,23.58,0,0,0-23.59-23.59Z"/><path class="cls-1" d="M1026.25,1123a23.57,23.57,0,1,0,23.56,23.56,23.57,23.57,0,0,0-23.56-23.56Z"/><path class="cls-1" d="M1101.27,1529.13a20.13,20.13,0,1,0,20.13,20.13,20.13,20.13,0,0,0-20.13-20.13Z"/><path class="cls-1" d="M1479.65,413.6c-20.76,16-46,24.56-72.51,22.41s-50-14.6-68-33.74c20.76-16,46-24.54,72.49-22.4s50,14.59,68,33.73Z"/><path class="cls-1" d="M559.67,306.26A40.26,40.26,0,1,0,519.41,266a40.27,40.27,0,0,0,40.26,40.26Z"/><path class="cls-1" d="M948.81,496.14a23.58,23.58,0,1,0-23.58-23.58,23.58,23.58,0,0,0,23.58,23.58Z"/><path class="cls-1" d="M646.2,506.12a23.57,23.57,0,1,0-23.57-23.57,23.57,23.57,0,0,0,23.57,23.57Z"/><path class="cls-1" d="M571.17,99.94A20.14,20.14,0,1,0,551.05,79.8a20.13,20.13,0,0,0,20.12,20.14Z"/><path class="cls-1" d="M602.7,1403.59c-21.82,43.52-57.17,78.07-103.23,95.83s-95.46,15.86-140.83-1.74c21.82-43.51,57.17-78.07,103.22-95.82s95.46-15.86,140.84,1.73Z"/><path class="cls-1" d="M1071.29,990c1.44,32.52-7.93,64.22-29,89.59s-50.57,40.38-82.8,44.89c-1.44-32.51,7.94-64.21,29-89.59s50.57-40.38,82.8-44.89Z"/><path class="cls-1" d="M880.8,1160.59c-2.6,56.32-23.73,109.55-64.11,150s-93.55,61.75-149.86,64.49c2.6-56.32,23.73-109.54,64.11-150s93.55-61.75,149.86-64.49Z"/><path class="cls-1" d="M1069.75,225.47c21.81-43.51,57.17-78.08,103.22-95.83s95.46-15.86,140.84,1.74c-21.82,43.51-57.17,78.07-103.23,95.83s-95.46,15.86-140.83-1.74Z"/><path class="cls-1" d="M601.16,639.09c-1.44-32.51,7.93-64.21,29-89.59s50.57-40.39,82.79-44.9c1.44,32.52-7.93,64.22-29,89.6s-50.57,40.38-82.8,44.89Z"/><path class="cls-1" d="M791.65,468.47c2.59-56.32,23.72-109.54,64.1-150s93.56-61.75,149.87-64.49c-2.6,56.32-23.73,109.54-64.11,150S848,465.72,791.65,468.47Z"/><path class="cls-1" d="M1471.42,627c35.74,14.45,74.84,16.51,111.51,3s65-40.52,82.82-74.72c-35.74-14.45-74.84-16.5-111.5-3s-65.06,40.52-82.83,74.72Z"/><path class="cls-1" d="M503.77,73.57c-36,21.27-63.53,53.62-76,94.14s-7.95,82.76,9.83,120.61c36-21.28,63.52-53.62,76-94.14s7.95-82.76-9.83-120.61Z"/><path class="cls-1" d="M270.66,457.41c40.13,9.19,75.64,31.3,99.47,65.59S402.34,598.27,397,639.09c-40.13-9.19-75.63-31.31-99.47-65.59s-32.21-75.27-26.85-116.09Z"/><path class="cls-1" d="M246.74,414.33c-27.84-17.76-60.46-25.6-93.48-19.93s-61.14,24-81.46,50c27.84,17.76,60.46,25.61,93.48,19.94s61.15-23.95,81.46-50Z"/><path class="cls-1" d="M1464.82,347.11a36.63,36.63,0,1,0-36.62-36.63,36.62,36.62,0,0,0,36.62,36.63Z"/><path class="cls-2" d="M1338.53,1241a28,28,0,1,1,19.83,34.34,28,28,0,0,1-19.83-34.34Z"/><path class="cls-2" d="M410.91,995.62a23.58,23.58,0,1,0,23.58,23.58,23.58,23.58,0,0,0-23.58-23.58Z"/><path class="cls-2" d="M1164.33,996.89a23.58,23.58,0,1,0,23.58,23.59,23.59,23.59,0,0,0-23.58-23.59Z"/><path class="cls-2" d="M1420.85,1232.07c20.85,15.9,35.61,38.06,40.41,64.22s-1.15,52.12-15,74.38c-20.86-15.89-35.62-38.07-40.41-64.23s1.14-52.12,15-74.37Z"/><path class="cls-2" d="M736.37,1410.94a28,28,0,1,0-19.83,34.36,28,28,0,0,0,19.83-34.36Z"/><path class="cls-2" d="M544,1523.53a23.58,23.58,0,1,0,23.58,23.58A23.58,23.58,0,0,0,544,1523.53Z"/><path class="cls-2" d="M1303.27,1440.12a23.58,23.58,0,1,0,23.59,23.59,23.58,23.58,0,0,0-23.59-23.59Z"/><path class="cls-2" d="M703.58,1629.06c-39.37-19.75-70.65-51.73-86.73-93.42s-14.36-86.4,1.58-127.48c39.38,19.75,70.66,51.75,86.73,93.44s14.36,86.4-1.58,127.46Z"/><path class="cls-2" d="M1060,1315.92c-41.08-2.79-79.61-19.05-108.54-49.17s-43.61-69.28-44.73-110.44c41.09,2.78,79.62,19,108.54,49.16s43.62,69.3,44.73,110.45Z"/><path class="cls-2" d="M815.79,1121.63c-42.17,5.68-84.53-2.81-120-27.32s-58.48-61.12-68.13-102.55c42.17-5.69,84.54,2.81,120,27.32s58.49,61.11,68.13,102.55Z"/><path class="cls-2" d="M347,1246.3c-30.43,27.86-50.45,64.67-54.28,106.35s9.14,81.52,34,114.45c30.43-27.85,50.45-64.67,54.28-106.34s-9.13-81.52-34-114.46Z"/><path class="cls-2" d="M109.64,1262.92c-14.25-34.1-16.65-71.57-4.06-106.89s38.13-62.82,70.74-80.24c14.25,34.11,16.64,71.59,4.06,106.9s-38.14,62.82-70.74,80.23Z"/><path class="cls-2" d="M1256.11,1320.8c8.75,31.35,27.51,58.56,55.47,76.11s60.62,22.65,92.65,16.91c-8.74-31.34-27.51-58.56-55.47-76.11s-60.62-22.65-92.65-16.91Z"/><path class="cls-2" d="M1665.75,1034.76c-22.35,13.17-48.17,18.42-73.93,13s-47.33-20.49-62.55-41.5c22.35-13.17,48.17-18.42,73.92-13.06s47.33,20.51,62.56,41.51Z"/><path class="cls-2" d="M1562.81,366.14c14.25,34.1,16.65,71.57,4,106.89s-38.13,62.82-70.74,80.24c-14.24-34.11-16.64-71.58-4-106.89s38.13-62.84,70.74-80.24Z"/><path class="cls-2" d="M416.34,308.27c-8.75-31.36-27.52-58.57-55.47-76.12s-60.62-22.65-92.65-16.91c8.73,31.35,27.51,58.56,55.46,76.11S384.3,314,416.34,308.27Z"/><path class="cls-2" d="M6.69,594.31c22.36-13.17,48.18-18.43,73.93-13.06s47.33,20.5,62.56,41.5C120.82,635.92,95,641.17,69.25,635.81s-47.32-20.5-62.56-41.5Z"/><path class="cls-2" d="M333.92,388.11a28,28,0,1,1-19.84-34.34,28.05,28.05,0,0,1,19.84,34.34Z"/><path class="cls-2" d="M1261.54,633.45A23.58,23.58,0,1,0,1238,609.87a23.58,23.58,0,0,0,23.58,23.58Z"/><path class="cls-2" d="M508.11,632.17a23.58,23.58,0,1,0-23.58-23.59,23.59,23.59,0,0,0,23.58,23.59Z"/><path class="cls-2" d="M251.6,397c-20.85-15.9-35.62-38.07-40.42-64.23s1.16-52.12,15-74.38c20.85,15.9,35.61,38.07,40.41,64.23s-1.15,52.12-15,74.38Z"/><path class="cls-2" d="M936.08,218.11a28,28,0,1,0,19.83-34.33,28,28,0,0,0-19.83,34.33Z"/><path class="cls-2" d="M1128.46,105.53A23.58,23.58,0,1,0,1104.87,82a23.58,23.58,0,0,0,23.59,23.58Z"/><path class="cls-2" d="M369.17,188.93a23.58,23.58,0,1,0-23.58-23.57,23.58,23.58,0,0,0,23.58,23.57Z"/><path class="cls-2" d="M968.86,0c39.37,19.74,70.66,51.74,86.73,93.43S1070,179.83,1054,220.9c-39.38-19.75-70.66-51.74-86.74-93.43S952.93,41.06,968.86,0Z"/><path class="cls-2" d="M612.44,313.15c41.08,2.78,79.61,19,108.53,49.17s43.61,69.28,44.72,110.44c-41.07-2.79-79.6-19.05-108.53-49.18s-43.61-69.28-44.72-110.43Z"/><path class="cls-2" d="M856.65,507.43c42.16-5.68,84.54,2.81,120.05,27.33s58.49,61.11,68.14,102.54c-42.17,5.69-84.55-2.81-120-27.31s-58.49-61.12-68.14-102.56Z"/><path class="cls-2" d="M1325.43,382.75c30.43-27.84,50.45-64.66,54.27-106.34s-9.13-81.52-34-114.45c-30.44,27.85-50.45,64.67-54.28,106.34s9.13,81.52,34,114.45Z"/><path class="cls-3" d="M927.39,1621a154.82,154.82,0,1,1,138.53-164.17A124.73,124.73,0,1,0,927.39,1621Z"/><path class="cls-3" d="M366.43,1215.61a165.17,165.17,0,0,1-.84-16.57,160.89,160.89,0,1,1,171.46,160.53,129.63,129.63,0,1,0-170.62-144Z"/><path class="cls-3" d="M1213.39,1068.48q6.19,1,12.4,2.65A123,123,0,1,1,1073.36,1166a99.07,99.07,0,1,0,140-97.48Z"/><path class="cls-3" d="M299.53,1163.65a79.68,79.68,0,0,1-93.37-44.47,61.66,61.66,0,1,0,31.52-98.89c-1.76.47-3.48,1-5.17,1.63a79.67,79.67,0,1,1,67,141.73Z"/><path class="cls-3" d="M1496.1,1142.62a69.26,69.26,0,0,0,51-74,53.58,53.58,0,1,1-66.71-60.74c1.54-.4,3.08-.74,4.62-1a69.24,69.24,0,1,0,11.13,135.79Z"/><path class="cls-3" d="M745.05,8.11A154.82,154.82,0,1,1,606.53,172.29,124.73,124.73,0,1,0,745.05,8.11Z"/><path class="cls-3" d="M1306,413.45a165.07,165.07,0,0,1,.84,16.58,160.9,160.9,0,1,1-171.47-160.54,129.64,129.64,0,1,0,170.63,144Z"/><path class="cls-3" d="M459.05,560.58a123,123,0,1,1,140-97.48,99.07,99.07,0,1,0-140,97.48Z"/><path class="cls-3" d="M1372.91,465.41a79.69,79.69,0,0,1,93.37,44.47,61.66,61.66,0,1,0-31.52,98.9q2.65-.72,5.17-1.64a79.67,79.67,0,1,1-67-141.73Z"/><path class="cls-3" d="M176.34,486.44a69.25,69.25,0,0,0-50.95,74.05,53.58,53.58,0,1,1,66.7,60.72c-1.54.42-3.07.75-4.61,1a69.24,69.24,0,1,0-11.14-135.8Z"/><path class="cls-4" d="M1088.91,1136.56a66.46,66.46,0,0,1,71.07-48.9,51.43,51.43,0,1,0,58.29,64c.39-1.47.71-3,1-4.42a66.46,66.46,0,1,1-130.33-10.69Z"/><path class="cls-4" d="M1150.06,1075c1-.4,2.12-.79,3.19-1.16a86.77,86.77,0,1,1-41.68,146.8A78.74,78.74,0,1,0,1150.06,1075Z"/><path class="cls-4" d="M212,1101.41a46.34,46.34,0,0,1-3.65-9.43,46.91,46.91,0,1,1,79.08,20.43,38.9,38.9,0,1,0-75.43-11Zm45.09,21.13A24.16,24.16,0,1,1,274.16,1093a24.15,24.15,0,0,1-17.09,29.59Z"/><path class="cls-4" d="M917.06,1017.38a61.53,61.53,0,0,1,26.7,75.27,47.61,47.61,0,1,0-71.21,36.79c1.21.7,2.46,1.34,3.72,1.93a61.53,61.53,0,1,1,40.79-114Z"/><path class="cls-4" d="M1535,1057.74a41.73,41.73,0,0,0-1.35-8.69,40.77,40.77,0,1,0-50.65,49.74,33.81,33.81,0,1,1,52-41Zm-24.76,35.49a21,21,0,1,0-25.72-14.85,21,21,0,0,0,25.72,14.85Z"/><path class="cls-4" d="M1120.58,1335.91a23.58,23.58,0,1,0,23.58,23.57,23.58,23.58,0,0,0-23.58-23.57Z"/><path class="cls-4" d="M1346.47,1244.08a14.34,14.34,0,1,1,10.14,17.57,14.36,14.36,0,0,1-10.14-17.57Z"/><path class="cls-4" d="M728.44,1414.08a14.35,14.35,0,1,0-10.15,17.57,14.36,14.36,0,0,0,10.15-17.57Z"/><path class="cls-4" d="M944,215a14.35,14.35,0,1,0,10.14-17.56A14.35,14.35,0,0,0,944,215Z"/><path class="cls-4" d="M1056.6,1497.6a83.69,83.69,0,0,1-70.5,82.63,64.75,64.75,0,1,0-91.75-58.86c0,1.92.09,3.82.26,5.7a83.67,83.67,0,1,1,162-29.47Z"/><path class="cls-4" d="M1002.27,1592.33c-1.15.84-2.33,1.66-3.5,2.46a109.24,109.24,0,1,1,2.85-192.11,99.15,99.15,0,1,0,.65,189.65Z"/><path class="cls-4" d="M494.63,1349.87a87,87,0,0,1-85.87-73.25,67.29,67.29,0,1,0,61.17-95.35q-3,0-5.92.26a87,87,0,1,1,30.62,168.34Z"/><path class="cls-4" d="M396.18,1293.42q-1.31-1.82-2.56-3.63a113.54,113.54,0,1,1,199.65,3,103,103,0,1,0-197.09.68Z"/><path class="cls-4" d="M755.39,611.69a61.56,61.56,0,0,1-26.71-75.28,47.62,47.62,0,1,0,71.22-36.78c-1.22-.71-2.47-1.35-3.72-1.94a61.53,61.53,0,1,1-40.79,114Z"/><path class="cls-4" d="M137.49,571.32a40.25,40.25,0,0,0,1.35,8.69,40.77,40.77,0,1,0,50.65-49.73,33.81,33.81,0,1,1-52,41Zm24.75-35.48A21,21,0,1,0,188,550.68a21,21,0,0,0-25.73-14.84Z"/><path class="cls-4" d="M551.87,293.15a23.58,23.58,0,1,0-23.58-23.57,23.58,23.58,0,0,0,23.58,23.57Z"/><path class="cls-4" d="M326,385a14.34,14.34,0,1,1-10.15-17.56A14.34,14.34,0,0,1,326,385Z"/><path class="cls-4" d="M615.85,131.46a83.69,83.69,0,0,1,70.49-82.63,64.75,64.75,0,1,0,91.75,58.86c0-1.92-.08-3.82-.25-5.69a83.67,83.67,0,1,1-162,29.46Z"/><path class="cls-4" d="M670.18,36.73c1.15-.83,2.32-1.66,3.49-2.46a109.25,109.25,0,1,1-2.84,192.11,99.15,99.15,0,1,0-.65-189.65Z"/><path class="cls-4" d="M1177.82,279.18a87,87,0,0,1,85.87,73.27,67.29,67.29,0,1,0-61.17,95.36c2,0,4-.1,5.92-.27a87,87,0,1,1-30.62-168.36Z"/><path class="cls-4" d="M1276.27,335.65q1.31,1.8,2.56,3.63a113.53,113.53,0,1,1-199.66-3,103,103,0,1,0,197.1-.67Z"/><path class="cls-4" d="M583.54,492.5a66.48,66.48,0,0,1-71.08,48.91,51.43,51.43,0,1,0-58.29-64c-.39,1.47-.71,2.95-1,4.42A66.46,66.46,0,1,1,583.54,492.5Z"/><path class="cls-4" d="M522.38,554c-1.06.41-2.11.79-3.19,1.18a86.77,86.77,0,1,1,41.69-146.81A78.75,78.75,0,1,0,522.38,554Z"/><path class="cls-4" d="M1460.47,527.64a48,48,0,0,1,3.65,9.45A46.91,46.91,0,1,1,1385,516.65a38.9,38.9,0,1,0,75.43,11Zm-45.1-21.11a24.16,24.16,0,1,1-17.09,29.58,24.14,24.14,0,0,1,17.09-29.58Z"/><path class="cls-5" d="M969.66,1569.5a49.27,49.27,0,1,1,31.66-73.53,40.85,40.85,0,1,0-31.66,73.53Zm33.69-40A25.38,25.38,0,1,1,978,1504.12a25.38,25.38,0,0,1,25.37,25.37Z"/><path class="cls-5" d="M419.91,1259.53a51.2,51.2,0,1,1,76.41,32.9,42.46,42.46,0,1,0-76.41-32.9Zm41.56,35a26.37,26.37,0,1,1,26.38-26.37,26.36,26.36,0,0,1-26.38,26.37Z"/><path class="cls-5" d="M1170.38,1099.27a39.13,39.13,0,1,1-39.4,49.91,32.45,32.45,0,1,0,39.4-49.91ZM1136.31,1123a20.16,20.16,0,1,1,14.26,24.67,20.15,20.15,0,0,1-14.26-24.67Z"/><path class="cls-5" d="M930.88,1099.17a35.85,35.85,0,0,1-3.16,7.15,36.22,36.22,0,1,1-32-54.34,30,30,0,1,0,35.18,47.19ZM917.79,1063a18.66,18.66,0,1,1-25.48,6.82,18.65,18.65,0,0,1,25.48-6.82Z"/><path class="cls-5" d="M208.89,1293a18.74,18.74,0,1,0,18.75,18.73A18.72,18.72,0,0,0,208.89,1293Z"/><path class="cls-5" d="M1027.07,1128.44a16.41,16.41,0,1,0,16.41,16.4,16.41,16.41,0,0,0-16.41-16.4Z"/><path class="cls-5" d="M1463.55,336a18.73,18.73,0,1,0-18.74-18.73A18.73,18.73,0,0,0,1463.55,336Z"/><path class="cls-5" d="M645.37,500.62A16.41,16.41,0,1,0,629,484.22a16.41,16.41,0,0,0,16.41,16.4Z"/><path class="cls-5" d="M702.78,59.56a49.27,49.27,0,1,1-31.65,73.54,40.86,40.86,0,1,0,31.65-73.54Zm-33.68,40a25.37,25.37,0,1,1,25.37,25.38A25.37,25.37,0,0,1,669.1,99.56Z"/><path class="cls-5" d="M1252.54,369.53a51.2,51.2,0,1,1-76.42-32.9,42.46,42.46,0,1,0,76.42,32.9Zm-41.58-35a26.37,26.37,0,1,1-26.37,26.37A26.37,26.37,0,0,1,1211,334.52Z"/><path class="cls-5" d="M502.06,529.79a39.79,39.79,0,0,1-8.34-1.29,39.13,39.13,0,1,1,47.74-48.62,32.45,32.45,0,1,0-39.4,49.91ZM536.13,506a20.15,20.15,0,1,1-14.25-24.68A20.15,20.15,0,0,1,536.13,506Z"/><path class="cls-5" d="M741.57,529.89a35.8,35.8,0,0,1,3.15-7.15,36.22,36.22,0,1,1,32,54.35,30,30,0,1,0-35.18-47.2Zm13.09,36.16a18.66,18.66,0,1,1,25.48-6.83,18.65,18.65,0,0,1-25.48,6.83Z"/><path class="cls-6" d="M146.63,707c4.49.22,9,.39,13.62.5s9.25.17,14,.17c2.46,0,4,.57,4.54,1.68a10.76,10.76,0,0,1,.84,4.71q.34,9.42.34,18.84t.33,18.49c0,4.27-.44,7-1.34,8.24s-3.59,1.85-8.07,1.85H146.63q-12.1,0-24.21-.33-8.74,0-17.16-.17t-17.14-.17c-2.25,0-4.44-.05-6.56-.17a43.91,43.91,0,0,0-6.56.17q-7.06.67-8.58,2.35t-1.85,8.41q-.33,6.39-.5,11.44c-.12,3.36-.29,7.18-.51,11.43q0,7.74,1.35,9.58t9.41,2.53a127.78,127.78,0,0,0,19.68.5,167.45,167.45,0,0,1,19.67.17,58,58,0,0,0,7.74.17,59.56,59.56,0,0,1,7.73.17,89.27,89.27,0,0,0,8.92.67c1.9,0,3.19.4,3.86,1.18a5.85,5.85,0,0,1,1,3.86,68.33,68.33,0,0,0,.67,8.07c.44,4.5.67,9.09.67,13.8s-.11,9.3-.34,13.78q0,4.38-1.34,5.55t-5.72,1.18q-15.13.33-30.27.34t-30.26.33a18.26,18.26,0,0,1-2.53-.16A18.26,18.26,0,0,0,71.3,856q-6.06,0-7.23,1t-1.18,6.73q-.35,9.09-.34,20.51t-.34,20.52a77.45,77.45,0,0,1-.5,10.26,8.14,8.14,0,0,1-2.18,5.05,8,8,0,0,1-5.05,1.67c-2.24.11-5.49.18-9.75.18-5.61-.23-11.1-.39-16.48-.51s-10.88-.28-16.48-.5q-6.73-.67-8.41-2.19t-2-7.57Q1,894.35,1,877.7T.67,844.23q0-6.37-.33-21.69T0,789.75q0-17.47.17-33.46T1,732.58a48.86,48.86,0,0,0,.5-8.58A53.85,53.85,0,0,1,2,715.09c.22-4,.78-6.44,1.68-7.23s3.47-1.29,7.73-1.52h5.39q5.37.35,15.63.34h75.67q12.61,0,22.87.17T146.63,707Z"/><path class="cls-6" d="M213.22,714.42c0-4,1.8-6.16,5.39-6.39,6.49-.45,12.61-.62,18.32-.51s11.82.06,18.33-.17q7.73-.32,10.09,2T268,719.46q1,23.89,1.18,49.61t1.18,49.61q.33,10.08-.17,19.16a148.75,148.75,0,0,0,.17,18.84q.33,6.39,1.68,7.73t8.07,1.35q11.76.68,23.54.67H343c3.36,0,5.66.68,6.9,2s1.9,3.59,2,6.73.39,7.84.85,14.12q.66,6.74.83,13t.84,13q.34,6.74-7.06,6.73c-5.16-.23-10.42-.39-15.81-.51s-10.75-.17-16.14-.17h-41.7q-20.52,0-41.37-.33h-3.86a17.57,17.57,0,0,1-3.54-.34q-6.72-.68-9.08-3.2t-2.35-9.58q0-14.13.17-28.42T213.9,851V825.4q0-11.43.16-26.07t0-29.92q-.17-15.31-.33-29.6T213.22,714.42Z"/><path class="cls-6" d="M534.07,707q6-.33,7.9,1t3.19,7.06q2.7,11.1,4.88,21.53t4.88,21.52q5.72,24.21,11.43,47.75t11.44,47.42q2.69,10.77,5.21,21.7t5.21,21.69c.67,2.91,1.35,5.78,2,8.58s1.34,5.55,2,8.24q2,7.72-5.38,9.08h-2.36q-12.1.66-24.22.17t-23.87.16q-5.05,0-6.22-1.68t-1.85-7.39A137.49,137.49,0,0,0,523,884.25c-.46-2.23-1.4-3.47-2.86-3.69a26.47,26.47,0,0,0-3.87-.34q-12.11-.33-24.21,0l-23.88.67a5.52,5.52,0,0,0-4,1.35,8.37,8.37,0,0,0-2,3.7q-2,7.74-4.2,14.46t-4.21,14.46a11.82,11.82,0,0,1-2.52,5.22c-1,1-3.08,1.51-6.22,1.51H417.7q-8.76,0-16-.17l-7.56-.17q-8.07-.66-5.38-8.41,3.35-10.41,6.72-20.18t7.06-19.84q7.06-22.52,14.13-44.9T431.15,783q2.36-7.74,5.72-18.84t6.56-21.52q3.19-10.42,5.55-17.82c1.56-4.93,2.46-7.63,2.69-8.08q1-3.36,1.51-5.38a5.6,5.6,0,0,1,1.68-3,7,7,0,0,1,3.7-1.35,59.26,59.26,0,0,1,7.23-.34q4,0,13.62.17t20.18.17h34.48ZM508.84,839.86q5.38-.33,4-5.71-2.69-11.77-5.54-23.88t-5.55-23.88a12.6,12.6,0,0,0-1-2.19,2.19,2.19,0,0,0-2-1.17c-.9,0-1.4.33-1.51,1a5.89,5.89,0,0,1-.51,1.67q-3.71,10.77-7.4,21.7t-7.4,21.69q-1.68,5-2.35,7.57c-.45,1.68-.39,2.86.17,3.53s1.68,1,3.36,1h7.23c2.92-.22,5.32-.39,7.24-.5l6.05-.34A46,46,0,0,0,508.84,839.86Z"/><path class="cls-6" d="M828.67,818c.45,0,.85-.5,1.18-1.51a23.08,23.08,0,0,0,.84-3.7c.22-1.46.39-2.91.5-4.37a23.22,23.22,0,0,1,.51-3.53q3.69-21.2,7.06-43.89t6.73-43.89c.22-1.12.44-2.13.67-3s.45-1.9.68-3c.67-2.68,2.46-4,5.38-4q11.76.68,23.54.33t23.54.34q6.06.67,7.23,2.52c.78,1.24.84,3.87.17,7.91q-3.71,19.17-7.23,41.2t-7.23,41.19q-4,22.54-7.9,44.73t-7.57,44.4q-1,5.73-2.53,11.6c-1,3.92-1.85,7.69-2.52,11.27-.89,3.59-1.68,5.77-2.35,6.56s-2.81,1.29-6.39,1.51q-11.78.34-23.38-.17t-23.37.17c-3.59.23-6.34-.45-8.24-2a15.73,15.73,0,0,1-4.54-7.06q-4.37-10.43-8.57-20.69t-8.58-20.34q-4.38-10.1-8.75-20t-8.74-20a6,6,0,0,1-1.18-1.85,1.83,1.83,0,0,0-1.85-1.18c-.67,0-1.23.45-1.68,1.34a21.53,21.53,0,0,1-1.35,2.36,436.6,436.6,0,0,0-20.68,40.69q-9.24,20.87-18,42.05c-.45,2.24-1.12,3.69-2,4.37a26.9,26.9,0,0,1-2.69,2.35,4.93,4.93,0,0,1-3,1,155.6,155.6,0,0,1-19.17.16,157.6,157.6,0,0,0-19.17.18c-3.14,0-5.17-1.57-6.06-4.71q-4-17.82-8.24-35.49t-8.24-35.48q-3.71-17.47-7.56-34.63T640,777.31c-.89-4-1.8-8.52-2.69-13.45s-1.79-10-2.69-15.31-1.85-10.37-2.86-15.3-2-9.42-2.86-13.45c-.23-.89-.45-1.68-.67-2.35s-.45-1.46-.67-2.36q-.67-4.71,1.51-6.39c1.45-1.12,3.75-1.56,6.89-1.35,2,.23,5.27.4,9.76.51S655,708,660,708s9.75-.06,14.13-.17,7.57-.28,9.58-.51c1.8,0,3,.34,3.54,1a9.8,9.8,0,0,1,1.51,3q1.34,4.71,2.52,10.43t2.35,11.77c.79,4,1.57,8,2.36,11.94s1.51,7.34,2.18,10.26q3.36,12.44,6.39,24.71T711,804.89c.23.67.51,1.4.85,2.18a2.1,2.1,0,0,0,2.18,1.18c.67,0,1.45-.89,2.36-2.69q7.06-12.12,14.12-23.21t13.45-23.54q5.72-11.76,18.5-10.76a84.41,84.41,0,0,0,14.13.16,126.22,126.22,0,0,1,14.46-.16,5.5,5.5,0,0,1,4,1.34,15.55,15.55,0,0,1,2.69,4q6.39,15.14,13.12,29.43T824.3,812a38.09,38.09,0,0,0,1.85,3.87C826.94,817.28,827.78,818,828.67,818Z"/><path class="cls-6" d="M938.31,714.42c0-4,1.79-6.16,5.38-6.39q9.75-.67,18.33-.51t18.33-.17q7.73-.32,10.09,2t2.69,10.09q1,23.89,1.18,49.61t1.17,49.61q.35,10.08-.16,19.16a150.59,150.59,0,0,0,.16,18.84q.35,6.39,1.69,7.73t8.07,1.35q11.76.68,23.54.67h39.35c3.36,0,5.66.68,6.9,2s1.9,3.59,2,6.73.39,7.84.84,14.12q.67,6.74.84,13t.84,13q.33,6.74-7.06,6.73c-5.16-.23-10.43-.39-15.81-.51s-10.76-.17-16.14-.17h-41.7q-20.52,0-41.37-.33h-3.87a17.54,17.54,0,0,1-3.53-.34q-6.74-.68-9.08-3.2t-2.35-9.58q0-14.13.16-28.42T939,851V825.4q0-11.43.16-26.07t0-29.92q-.17-15.31-.34-29.6T938.31,714.42Z"/><path class="cls-6" d="M1115.54,776.64q0-12.78-.5-25.4t-1.17-25.39c0-1.12-.07-2.3-.17-3.53s-.17-2.52-.17-3.87c0-3.81.45-6.6,1.34-8.41s3.93-2.57,9.08-2.35q8.74.34,22,.34h57.68q15.13,0,27.74-.17t21.7-.17h12.1q6.73,0,7.07,6.39.33,8.76.33,19.17v19.17a3.57,3.57,0,0,1-1.51,2.35,4.22,4.22,0,0,1-2.52,1.35q-4.71.68-9.25,1.18a82.86,82.86,0,0,1-9.25.5q-16.48.35-32,.34t-31.95.33c-3.81,0-6.78.12-8.91.34a5.61,5.61,0,0,0-5.89,6.56q0,3.2.34,9.25a34.65,34.65,0,0,1-.17,4.37,18.09,18.09,0,0,0,.17,4c.22,2.68.45,4.82.68,6.38a6.78,6.78,0,0,0,1.34,3.54,5.24,5.24,0,0,0,3.36,1.51q2.36.35,6.73.67a38,38,0,0,0,9.25.34,68.73,68.73,0,0,1,9.58,0,19.32,19.32,0,0,1,5.89,1.18,4.64,4.64,0,0,1,2.52,2.52,10.21,10.21,0,0,1,.5,4.37q-.16,2.7-.16,6.73a18,18,0,0,1-.17,2.52,6.45,6.45,0,0,0,.17,2.52q0,6.06-6.06,6.05a142.78,142.78,0,0,1-19.84,0q-5.38,0-8.41.18c-2,.11-3.42.62-4.2,1.51a6.88,6.88,0,0,0-1.35,4.2c-.11,1.91-.17,4.54-.17,7.91V860q.33,7.07,7.07,7.07h81.72q6.06-.68,8.41.84c1.56,1,2.47,3.53,2.69,7.56q.67,9.42.84,20.85t-.17,20.86a4.23,4.23,0,0,1-1.51,2.86,6.62,6.62,0,0,1-2.86,1.85,76.54,76.54,0,0,1-9.25.33h-17.49q-10.26,0-22.36-.17l-23.88-.34q-11.77-.16-22.19-.16h-16.82q-7.74.33-15.81,0l-15.81-.67q-6.39-.33-8.23-2.19c-1.24-1.23-1.85-4-1.85-8.24v-22.2q0-11.1.33-22.19c0-5.16,0-10.14.17-15s.28-9.8.5-15c-.22,0-.28-2.18-.16-6.55s.22-9.64.33-15.81.22-12.66.34-19.51S1115.54,781.57,1115.54,776.64Z"/><path class="cls-6" d="M1437.74,709.37a43.83,43.83,0,0,1,14.8,10.09q6,6.4,12.44,12.78a4.68,4.68,0,0,1,1.34,4.71,9.11,9.11,0,0,1-2.35,4.37q-6,6.73-12.11,13.29t-12.44,12.95q-2.7,3-6.72.67l-6.73-5.38a47.75,47.75,0,0,0-7.07-4.71q-4.71-2.68-9.41-5.22a70.66,70.66,0,0,0-9.42-4.2,15.68,15.68,0,0,0-10.26-.51,11.74,11.74,0,0,0-6.89,6.23,15.71,15.71,0,0,0-1.18,9.58,12.56,12.56,0,0,0,4.88,8.58q5.37,3.71,10.93,6.89t11.27,6.22q8.06,4.72,16.3,9.25t16,9.25a68.32,68.32,0,0,1,14,11.27q6.23,6.56,11.94,13.62a40.47,40.47,0,0,1,8.24,18.83,74.55,74.55,0,0,1,.17,20.52q-4.73,40.35-44.06,54.15a83.92,83.92,0,0,1-30.44,4.88,127.89,127.89,0,0,1-30.44-4.88A102.46,102.46,0,0,1,1344.58,912q-11.79-6.9-23.54-14.3a15.67,15.67,0,0,1-4-3q-3-2.68-4.54-4.2a6.24,6.24,0,0,1-1.85-3.2,7,7,0,0,1,.5-3.86,53.79,53.79,0,0,1,2.86-5.89q3.71-7.06,6.9-14.46t6.55-14.8q1.35-2.68,2.36-5a25.15,25.15,0,0,1,2.69-4.71,4.67,4.67,0,0,1,2.69-2.19,3.34,3.34,0,0,1,3.37,1.18q3.69,3.71,7.4,7.4l7.39,7.4a69.94,69.94,0,0,0,19.34,13.28,213.43,213.43,0,0,0,21.69,8.58,21.46,21.46,0,0,0,10.09.34,17.53,17.53,0,0,0,8.41-4,15.14,15.14,0,0,0,4.54-7.06,16.49,16.49,0,0,0,.17-8.41,16.72,16.72,0,0,0-4.71-8.07,71,71,0,0,0-9.42-7.91q-5-3.53-10.42-6.56-8.76-5.37-17.83-10.25T1356.69,813q-14.13-6.74-22-17.66a79.15,79.15,0,0,1-11.94-25.39q-5.06-20.85,7.06-37.67A76.64,76.64,0,0,1,1339.2,721q4.71-4.53,14.8-9.58a90.1,90.1,0,0,1,26.9-8.57,111.83,111.83,0,0,1,24-1,104.84,104.84,0,0,1,19.51,3.19A109.74,109.74,0,0,1,1437.74,709.37Z"/><path class="cls-6" d="M1634.14,709.37a43.73,43.73,0,0,1,14.8,10.09q6,6.4,12.44,12.78a4.67,4.67,0,0,1,1.35,4.71,9.12,9.12,0,0,1-2.36,4.37q-6,6.73-12.1,13.29t-12.45,12.95c-1.8,2-4,2.24-6.72.67l-6.73-5.38a47.66,47.66,0,0,0-7.06-4.71q-4.71-2.68-9.42-5.22a70.66,70.66,0,0,0-9.42-4.2,15.64,15.64,0,0,0-10.25-.51,11.76,11.76,0,0,0-6.9,6.23,15.71,15.71,0,0,0-1.17,9.58,12.55,12.55,0,0,0,4.87,8.58q5.37,3.71,10.93,6.89t11.27,6.22q8.07,4.72,16.31,9.25t16,9.25a68,68,0,0,1,14,11.27q6.22,6.56,11.94,13.62a40.47,40.47,0,0,1,8.24,18.83,74.16,74.16,0,0,1,.17,20.52q-4.71,40.35-44.06,54.15a83.87,83.87,0,0,1-30.43,4.88,127.89,127.89,0,0,1-30.44-4.88A102.54,102.54,0,0,1,1541,912q-11.77-6.9-23.54-14.3a15.64,15.64,0,0,1-4-3q-3-2.68-4.55-4.2a6.24,6.24,0,0,1-1.85-3.2,7,7,0,0,1,.51-3.86,52,52,0,0,1,2.86-5.89q3.69-7.06,6.89-14.46t6.56-14.8c.89-1.79,1.68-3.47,2.35-5a25.21,25.21,0,0,1,2.7-4.71,4.64,4.64,0,0,1,2.69-2.19,3.32,3.32,0,0,1,3.36,1.18q3.69,3.71,7.4,7.4l7.39,7.4a69.84,69.84,0,0,0,19.35,13.28,213.43,213.43,0,0,0,21.69,8.58,21.45,21.45,0,0,0,10.09.34,17.49,17.49,0,0,0,8.4-4,15.16,15.16,0,0,0,4.55-7.06A16.38,16.38,0,0,0,1614,855a16.64,16.64,0,0,0-4.71-8.07,70.27,70.27,0,0,0-9.41-7.91q-5.05-3.53-10.43-6.56-8.75-5.37-17.82-10.25t-18.5-9.25q-14.13-6.74-22-17.66a79.15,79.15,0,0,1-11.94-25.39q-5-20.85,7.06-37.67A77.26,77.26,0,0,1,1535.6,721q4.71-4.53,14.8-9.58a90.19,90.19,0,0,1,26.9-8.57,111.92,111.92,0,0,1,24-1,105.12,105.12,0,0,1,19.51,3.19A109.49,109.49,0,0,1,1634.14,709.37Z"/></g></g></svg>